<?xml version="1.0" standalone="no"?><!DOCTYPE svg PUBLIC "-//W3C//DTD SVG 1.1//EN" "http://www.w3.org/Graphics/SVG/1.1/DTD/svg11.dtd"><svg class="icon" width="16px" height="8.16px" viewBox="0 0 2008 1024" version="1.1" xmlns="http://www.w3.org/2000/svg"><path fill="#333333" d="M1020.48398 1003.466999h-135.165971v-34.662915c0.017634-116.532524 0.258635-233.059169-0.205732-349.591693-0.064659-16.470322 5.537132-41.951709-18.039764-42.833418-26.915633-1.022782-21.178647 26.051558-21.284452 43.009759-0.728879 115.54501-0.376196 231.095898-0.376196 346.652664v36.52626h-137.346732c-0.464367-8.681893-1.381344-17.963349-1.387221-27.238927-0.076415-134.160823-0.105805-268.30989 0.023512-402.470713 0.047024-45.167007 18.363057-62.954014 64.264821-62.977527 87.312691-0.047024 174.625383-0.035268 261.943952-0.023512 42.316148 0 84.632296-0.064659 126.954323 0.082293 25.83407 0.082293 41.375659 13.155096 41.469708 39.000923 0.529025 150.648779 0.258635 301.303437 0.258634 454.221147h-140.732493v-32.634985c0-116.526646 0.035268-233.059169-0.035269-349.591693-0.005878-9.769334 1.504783-20.338085-1.722271-29.043491-2.539322-6.859695-11.068385-15.482808-17.357909-15.829613-6.001498-0.340927-15.318222 7.800185-18.169081 14.383611-3.650275 8.446771-2.96842 19.056668-2.980176 28.743709-0.158708 116.526646-0.111683 233.053291-0.111683 349.585815v34.692306zM1035.343714 285.273969c-37.842945 1.487149-51.356603-7.741404-51.421262-33.681279-0.064659-25.069922 27.515195-54.566024 52.338239-53.678437 18.451228 0.658343 36.749626 5.848669 55.200854 6.424719 8.552576 0.264513 17.299128-5.642937 25.963387-8.75243-3.78547-9.545968-4.978716-23.735603-11.908947-27.585732-11.709094-6.501133-27.474049-9.992701-40.781975-8.411503-25.116947 2.974298-43.021515-6.842061-54.295633-26.545315-11.562142-20.214646-0.158708-36.637943 14.642245-51.803336 20.332207-20.831842 39.171387-43.109686 60.020863-66.292751 14.601099 2.551078 35.003843 15.012563 42.28088-14.936149 12.196973 15.776711 20.396865 34.298475 34.55711 42.451344 14.095586 8.099966 35.591648 2.327711 51.350725 8.740674 33.146376 13.496024 67.909218 26.639364 96.182683 47.72984 63.453649 47.324255 124.303318 98.298784 184.400595 149.89051 56.135465 48.188329 115.72723 81.787316 193.599758 74.945255 32.435131-2.850859 58.022322-13.883976 73.834302-40.229437 23.024358-38.389605 41.669562-79.371433 63.153868-118.719162 21.454916-39.288948 41.681318-79.600678 67.056899-116.268011 18.345423-26.515925 46.536595-41.681318 81.863731-33.175766 32.705521 7.876599 44.085444 25.839948 28.008952 55.530025-10.133774 18.703984-26.945023 37.954628-45.596106 47.142035-74.192863 36.55565-122.010875 93.084946-142.725155 172.615087-8.452649 32.482155-34.551232 48.535135-58.657153 66.498483-17.986861 13.401975-19.80906 23.953091-7.659111 45.878252 13.978025 25.222752 18.29252 56.42349 23.676822 85.602177 4.778862 25.875217 5.354912 52.520459 7.623843 78.848286 2.33359 27.086097 8.217527 51.315457 34.862769 66.768874 8.581966 4.972838 15.923662 18.104422 17.322641 28.396904a1580.715925 1580.715925 0 0 1 11.72085 122.398827c0.581928 9.980945-6.859695 20.426256-10.609897 30.665835-12.285144-6.324792-30.654079-9.640017-35.579892-19.59745-10.004457-20.249914-18.204349-44.338201-17.181567-66.3868 1.481271-31.876715-8.017673-54.436706-32.464521-73.334667-62.33094-48.182451-102.736719-111.718393-127.336397-185.84072-17.751739-53.466827-55.042146-80.523533-110.748513-76.544087-98.004881 7.000769-170.540132-40.729072-235.422149-105.540553-17.769373-17.757617-30.495371-20.50267-55.118562-7.764916-22.025088 11.391679-52.27358 11.53863-78.23109 9.222675-21.519575-1.916247-42.815783-13.131584-62.877599-22.953821-30.95386-15.159515-32.664375-15.259442-41.046487 18.29252z"  /><path fill="#333333" d="M1553.594559 1004.378098h-134.119676v-114.810252l-36.120674-2.033809v115.827157h-145.828771v-30.283761c0-134.04914-0.047024-268.092402 0.011756-402.141543 0.017634-52.967191 8.070575-60.973108 60.873181-61.02601 70.44854-0.064659 140.897079-0.258635 211.339741-0.017634 32.482155 0.117561 46.401399 12.008875 46.501326 43.086173 0.487879 146.757504 0.117561 293.526764-0.052902 440.290147 0.011756 2.745054-1.24027 5.495985-2.603981 11.109532z m-134.619311-171.686353c0-79.424336 0.505513-157.543743-0.840563-235.63376-0.123439-7.259403-12.002997-14.318952-18.421837-21.466672-5.51362 7.835453-15.65915 15.582735-15.800224 23.518115-1.299051 71.4772-0.905221 142.977912-0.758269 214.466868 0.011756 6.454109 1.81632 12.890584 2.750932 19.115449h33.069961zM355.440362 511.326492h140.820664v138.604636c0.005878 81.217144-0.070537 162.440166 0.129318 243.651432 0.023512 8.676015-0.023512 18.045642 3.185908 25.751777 2.086711 5.019863 10.127896 10.598141 15.306466 10.410043 5.061009-0.170464 12.455607-6.459987 14.219025-11.632679 2.727419-7.988282 1.93976-17.310884 1.945638-26.075071 0.088171-116.450231 0.052903-232.888706 0.047024-349.333058v-30.871567h134.190214c0.652465 7.747282 1.833954 15.247686 1.839832 22.748089 0.088171 137.969806 0.15283 275.939611-0.05878 413.915295-0.070537 46.166277-8.699528 54.81878-54.995122 55.024512-68.491146 0.311537-136.994048 0.323293-205.485194-0.135195-35.092013-0.241-50.292675-11.826655-50.598334-46.624766-1.287295-147.580432-0.54666-295.196133-0.546659-445.433448zM0 499.593886c15.206539 0 29.572516 0.023512 43.932614 0 64.54109-0.111683 129.08218-0.188098 193.623271-0.370318 61.99589-0.18222 83.056977 20.426256 82.974683 81.546315-0.111683 81.17012-0.123439 162.334361-0.487879 243.504481-0.205732 44.902494-12.978755 57.175882-57.593224 57.046564-39.929656-0.117561-79.859312-0.02939-123.016023-0.02939v114.510472H0V499.593886z m142.736912 315.152144c25.610704 2.833225 33.34623-13.061048 33.687157-31.518153a4911.353586 4911.353586 0 0 0 0.123439-184.247766c-0.429098-22.618772-9.863383-28.326367-33.810596-26.286681v242.0526zM1707.970028 971.884187c-0.75827 30.98325-23.4417 52.555727-54.801146 52.108994-30.795152-0.434976-53.008338-23.535749-52.438166-54.530755 0.558416-30.177956 24.734873-53.408046 54.977488-52.82024 30.289639 0.581928 53.014216 24.599678 52.261824 55.242001z m-30.642322 32.270545c24.793654-14.65988 24.975874-35.750356 12.573168-57.540322-11.997119-21.066964-35.662185-23.371163-60.244228-8.241039-24.335165 15.65915-23.618042 37.484384-9.234431 57.287565 14.32483 19.732645 34.704062 27.456415 56.905491 8.493796z"  /><path fill="#333333" d="M1632.272382 940.842156c10.69219-0.317415 22.324869-3.297591 31.765032 0 6.307158 2.192516 14.495294 18.562911 13.366706 19.62684-16.499712 15.594491-0.511391 29.719467 0.69949 44.185371l-31.200739-26.633487-6.57167 19.2624-5.019862 0.470245-3.038957-56.911369z"  /></svg>